<?xml version="1.0" encoding="utf-8"?>
<svg version="1.1" id="Layer_1" xmlns="http://www.w3.org/2000/svg" 
	xmlns:xlink="http://www.w3.org/1999/xlink" viewBox="-532 714 79 79" style="enable-background:new -532 714 79 79;" xml:space="preserve">
<style type="text/css">
	.st0{fill:#6E6E6E;}
</style>
<polygon id="XMLID_16_" class="st0" points="-493.9,784.5 -481.5,772.1 -493.9,759.7 -493.9,759.7 -493.9,759.7 -481.5,747.3 
	-493.9,734.9 -488.9,729.9 -471.5,747.3 -471.6,747.3 -471.5,747.3 -483.9,759.7 -471.5,772.1 -471.6,772.1 -471.6,772.1 
	-453,753.5 -492.5,714 -496,717.5 -491,722.5 -503.5,734.9 -491,747.4 -491,747.4 -491,747.4 -503.4,759.8 -491,772.2 -496,777.2 
	-513.4,759.8 -513.4,759.8 -513.4,759.8 -501,747.4 -513.4,735 -513.4,734.9 -513.4,734.9 -532,753.5 -492.5,793 -488.9,789.5 "/>
</svg>
