<?xml version="1.0" encoding="utf-8"?>
<!-- Generator: Adobe Illustrator 19.0.0, SVG Export Plug-In . SVG Version: 6.00 Build 0)  -->
<svg version="1.1" id="Layer_1" xmlns="http://www.w3.org/2000/svg" xmlns:xlink="http://www.w3.org/1999/xlink" x="0px" y="0px"
	 viewBox="-186 708 424 86" style="enable-background:new -186 708 424 86;" xml:space="preserve">
<style type="text/css">
	.st0{fill:#5CB85C;}
	.st1{fill:#6E6E6E;}
</style>
<g>
	<g id="XMLID_10_">
		<path id="XMLID_17_" class="st0" d="M-74.3,740c1.6-2.8,3.6-4.9,5.9-6.2c2.3-1.3,5.2-2,8.6-2c0.2,0,0.5,0,0.9,0s0.8,0,1,0v7.4
			h-2.3c-4.5,0-7.9,1.2-10.4,3.5c-2.5,2.4-3.7,5.7-3.7,9.9v17.7h6.8v6.6h-21.7v-6.6h6.8v-30.5h-6.8v-6.6h14.9
			C-74.3,733.2-74.3,740-74.3,740z"/>
		<path id="XMLID_19_" class="st0" d="M-9.3,764c-2,4.4-5,7.9-9,10.4c-3.9,2.5-8.4,3.8-13.4,3.8c-7,0-12.6-2.2-16.8-6.5
			c-4.3-4.3-6.4-10-6.4-17.1c0-6.8,2.1-12.3,6.4-16.5c4.2-4.1,9.9-6.2,17-6.2c7,0,12.6,2.2,16.9,6.7c4.3,4.5,6.4,10.4,6.4,17.8v1
			h-38.1c0.3,4.1,1.9,7.5,4.8,10c2.9,2.5,6.6,3.8,11,3.8c2.8,0,5.3-0.6,7.7-1.9c2.4-1.3,4.3-3.1,5.8-5.4h7.7V764z M-46.3,751.1h29.5
			c-0.6-4-2.2-7.1-4.7-9.2c-2.5-2.1-5.9-3.2-10-3.2c-4.2,0-7.5,1.1-10,3.2C-44.1,744-45.7,747.1-46.3,751.1z"/>
		<path id="XMLID_22_" class="st0" d="M-2.4,714.7V708h15v30.4c2.2-2.2,4.5-3.8,7-4.9c2.5-1,5.4-1.6,8.5-1.6
			c6.4,0,11.8,2.2,16.1,6.7c4.3,4.4,6.5,9.9,6.5,16.5c0,6.6-2.2,12.1-6.6,16.5c-4.4,4.4-9.9,6.6-16.6,6.6c-3.1,0-5.9-0.5-8.2-1.5
			c-2.4-1-4.6-2.6-6.7-4.9v5.3h-15v-6.6h6.7v-55.8H-2.4z M12,755.1c0,4.7,1.4,8.5,4.3,11.6s6.4,4.6,10.7,4.6s7.9-1.5,10.8-4.6
			c2.9-3.1,4.3-6.9,4.3-11.6c0-4.7-1.4-8.6-4.2-11.6s-6.4-4.5-10.8-4.5c-4.3,0-7.9,1.5-10.7,4.5C13.5,746.5,12,750.4,12,755.1z"/>
		<path id="XMLID_25_" class="st0" d="M61.7,739.8H55v-6.6h14.9v26.4c0,4.6,0.6,7.6,1.8,9.1c1.2,1.4,3.2,2.2,6,2.2
			c2.3,0,4.6-0.6,6.8-1.8c2.2-1.2,4.6-3.1,7-5.7v-23.6h-6.8v-6.6h15v37.2h6.7v6.7H91.5v-6.3c-2.6,2.6-5.2,4.4-7.8,5.7
			c-2.6,1.2-5.3,1.8-8.2,1.8c-4.8,0-8.3-1.3-10.5-3.8s-3.3-6.5-3.3-12V739.8z"/>
		<path id="XMLID_27_" class="st0" d="M118.8,714.7h-7.6V708H127v62.5h7.6v6.6h-23.4v-6.6h7.6L118.8,714.7L118.8,714.7z"/>
		<path id="XMLID_29_" class="st0" d="M185.3,770.5h6.7v6.6h-15v-5.9c-1.8,2.3-4,4-6.6,5.2s-5.6,1.8-8.9,1.8
			c-6.4,0-11.8-2.2-16.1-6.6c-4.3-4.4-6.5-9.9-6.5-16.4s2.2-12,6.5-16.5c4.3-4.4,9.7-6.7,16.1-6.7c3.2,0,6.1,0.6,8.7,1.7
			c2.6,1.2,4.8,2.9,6.8,5.2v-5.8h15v6.6h-6.7V770.5z M147.6,755.1c0,4.7,1.4,8.6,4.3,11.6c2.9,3.1,6.4,4.6,10.7,4.6
			c4.3,0,7.8-1.5,10.7-4.6c2.9-3.1,4.3-6.9,4.3-11.6c0-4.7-1.4-8.5-4.3-11.6c-2.9-3-6.4-4.5-10.7-4.5c-4.4,0-8,1.5-10.8,4.5
			C149,746.5,147.6,750.4,147.6,755.1z"/>
		<path id="XMLID_32_" class="st0" d="M206.1,777.1h-6.4v-14.3h6.4c1.2,2.7,3.1,4.9,5.9,6.5c2.7,1.6,5.8,2.4,9.2,2.4
			c2.8,0,5.2-0.6,6.9-1.8c1.7-1.2,2.7-2.8,2.7-4.7c0-1.5-0.5-2.7-1.5-3.6c-1-0.8-2.7-1.5-5.2-1.9l-10.4-1.8
			c-4.8-0.8-8.3-2.3-10.5-4.4c-2.2-2.1-3.4-5-3.4-8.6c0-4,1.4-7.1,4.3-9.4c2.9-2.4,6.9-3.5,11.9-3.5c3.1,0,5.8,0.5,8.1,1.4
			c2.4,0.9,4,2.1,5,3.6v-3.7h6.5v13.5h-6.5c-1.5-3-3.3-5.2-5.5-6.6c-2.1-1.4-4.7-2.1-7.8-2.1c-2.6,0-4.7,0.6-6.3,1.7
			c-1.6,1.2-2.3,2.7-2.3,4.6c0,1.5,0.6,2.7,1.7,3.6c1.1,0.9,3,1.6,5.5,2l9,1.5c5.5,0.9,9.3,2.4,11.4,4.3c2.2,1.9,3.2,4.7,3.2,8.3
			c0,4.2-1.6,7.6-4.7,10.2c-3.1,2.6-7.2,3.9-12.4,3.9c-2.9,0-5.6-0.5-8.1-1.4c-2.5-0.9-4.8-2.3-7-4.2v4.5H206.1z"/>
	</g>
	<polygon id="XMLID_16_" class="st1" points="-147.9,785.5 -135.5,773.1 -147.9,760.7 -147.9,760.7 -147.9,760.7 -135.5,748.3 
		-147.9,735.8 -142.9,730.8 -125.5,748.2 -125.6,748.3 -125.5,748.3 -137.9,760.7 -125.5,773.1 -125.6,773.1 -125.6,773.1 
		-107,754.5 -146.5,715 -150,718.5 -145,723.5 -157.5,735.9 -145,748.3 -145,748.3 -145,748.3 -157.4,760.7 -145,773.1 -150,778.1 
		-167.4,760.7 -167.4,760.7 -167.4,760.7 -155,748.3 -167.4,735.9 -167.4,735.9 -167.4,735.9 -186,754.5 -146.5,794 -142.9,790.5 	
		"/>
</g>
</svg>
